<svg width="40" height="40" viewBox="0 0 40 40" fill="none" xmlns="http://www.w3.org/2000/svg">
<path d="M16.5 22C16.5 23.38 15.38 24.5 14 24.5C12.62 24.5 11.5 23.38 11.5 22C11.5 20.62 12.62 19.5 14 19.5C15.38 19.5 16.5 20.62 16.5 22ZM26 19.5C24.62 19.5 23.5 20.62 23.5 22C23.5 23.38 24.62 24.5 26 24.5C27.38 24.5 28.5 23.38 28.5 22C28.5 20.62 27.38 19.5 26 19.5ZM40 20C40 31.04 31.04 40 20 40C8.96 40 0 31.04 0 20C0 8.96 8.96 0 20 0C31.04 0 40 8.96 40 20ZM17.32 4.24C20.12 8.88 25.2 12 31 12C31.92 12 32.82 11.9 33.68 11.76C30.88 7.12 25.8 4 20 4C19.08 4 18.18 4.1 17.32 4.24ZM4.84 14.94C8.26 13 10.9 9.84 12.16 6.06C8.74 8 6.1 11.16 4.84 14.94ZM36 20C36 18.44 35.76 16.94 35.34 15.52C33.94 15.82 32.5 16 31 16C24.74 16 19.16 13.12 15.48 8.62C13.38 13.74 9.2 17.76 4 19.72C4.02 19.8 4 19.9 4 20C4 28.82 11.18 36 20 36C28.82 36 36 28.82 36 20Z" fill="#FD7E7E"/>
</svg>
