<svg width="80" height="36" viewBox="0 0 80 36" fill="none" xmlns="http://www.w3.org/2000/svg">
<path d="M62 0.0666504C57.2 0.0666504 52.6667 1.93332 49.4333 5.16665L40 13.5333L34.9333 18H34.9667L26 25.9667C23.8667 28.1 21.0333 29.2667 18 29.2667C11.7667 29.2667 6.7 24.2333 6.7 18C6.7 11.7667 11.7667 6.73332 18 6.73332C21.0333 6.73332 23.8667 7.89998 26.1333 10.1667L29.9 13.5L34.9333 9.03332L30.7333 5.33332C27.3333 1.93332 22.8 0.0666504 18 0.0666504C8.06667 0.0666504 0 8.13332 0 18C0 27.8667 8.06667 35.9333 18 35.9333C22.8 35.9333 27.3333 34.0667 30.5667 30.8333L40 22.5L40.0333 22.5333L45.0667 18H45.0333L54 10.0333C56.1333 7.89998 58.9667 6.73332 62 6.73332C68.2333 6.73332 73.3 11.7667 73.3 18C73.3 24.2333 68.2333 29.2667 62 29.2667C59 29.2667 56.1333 28.1 53.8667 25.8333L50.0667 22.4667L45.0333 26.9333L49.2667 30.6667C52.6667 34.0333 57.1667 35.9 62 35.9C71.9333 35.9 80 27.8667 80 17.9667C80 8.06665 71.9333 0.0666504 62 0.0666504Z" fill="#323232"/>
</svg>
