<svg xmlns="http://www.w3.org/2000/svg" xmlns:xlink="http://www.w3.org/1999/xlink" viewBox="0 0 137.82 73.91"><defs><style>.cls-1{isolation:isolate;opacity:0.3;fill:url(#linear-gradient);}.cls-2{fill:#ecf0f1;}.cls-3{opacity:0.7;}.cls-4,.cls-8{fill:#fff;}.cls-5{fill:#e8e8e8;}.cls-6,.cls-7{fill:none;}.cls-6{stroke:#ecf0f1;stroke-miterlimit:10;}.cls-7,.cls-8{stroke:#5d7ab5;stroke-linecap:round;stroke-linejoin:round;}.cls-9{fill:#ccebff;}</style><linearGradient id="linear-gradient" x1="-77.51" y1="-1772.27" x2="-80" y2="-1734.52" gradientTransform="matrix(1.18, 0.03, 0.08, -0.93, 302.1, -1576.11)" gradientUnits="userSpaceOnUse"><stop offset="0" stop-color="#fafbff"/><stop offset="0.93" stop-color="#ccd7ec"/></linearGradient></defs><g id="Layer_2" data-name="Layer 2"><g id="Layer_1-2" data-name="Layer 1"><path class="cls-1" d="M136.56,38.08c7.29,24.31-17.26,38.35-71.22,35.45C21.74,71.1.33,60,0,52.12-.69,36.2,30.29,35.73,44.72,33.29c17.72-3.05,32.94-7.21,53.49-12.07C122.05,15.41,133.58,28,136.56,38.08Z"/><path class="cls-2" d="M28.48,25.92s-5.1,37.49,48.24,34.59H28.48Z"/><g class="cls-3"><rect class="cls-4" x="15.93" y="58.39" width="0.39" height="3.22"/></g><path class="cls-5" d="M6.44,30.47v-.31a1.46,1.46,0,0,1,.16-.63A1.78,1.78,0,0,1,7.15,29c.23-.23.47-.31.55-.47a.83.83,0,0,0,.15-.39.56.56,0,0,0-.15-.39,1.14,1.14,0,0,0-.47-.16A3,3,0,0,0,6,28l-.39-.78a3.31,3.31,0,0,1,1.73-.47,1.87,1.87,0,0,1,1.17.39A1.1,1.1,0,0,1,9,28a1.16,1.16,0,0,1-.23.71,2.81,2.81,0,0,1-.71.62,4.48,4.48,0,0,0-.47.39.6.6,0,0,0-.08.4v.23l-1,.08Zm-.15,1.26a.63.63,0,0,1,.15-.47.58.58,0,0,1,.47-.16.8.8,0,0,1,.47.16c.16.15.16.23.16.47a.67.67,0,0,1-.16.47.58.58,0,0,1-.47.15.93.93,0,0,1-.47-.15A.67.67,0,0,1,6.29,31.73Z"/><polygon class="cls-2" points="15.62 63.1 15.62 65.53 109.66 65.53 15.62 63.1"/><line class="cls-6" x1="3.7" y1="66.78" x2="134.6" y2="66.78"/><path class="cls-4" d="M26.44,62V20a2.26,2.26,0,0,1,2.12-2.35h81A2.22,2.22,0,0,1,111.7,20V62Z"/><path class="cls-6" d="M111.7,62.31H26.44a.33.33,0,0,1-.31-.31V20a2.52,2.52,0,0,1,2.35-2.59h81A2.47,2.47,0,0,1,111.85,20V62C111.93,62.16,111.85,62.31,111.7,62.31Zm-84.94-.62h84.62V20a1.93,1.93,0,0,0-1.8-2h-81a1.93,1.93,0,0,0-1.8,2Z"/><path class="cls-6" d="M121.34,64.12a2.94,2.94,0,0,1-.78,1.8,2.75,2.75,0,0,1-1.88.79H16a2.67,2.67,0,0,1-2.67-2.51l.08-2.28H121.34v2.2Z"/><path class="cls-6" d="M118.68,66.94H16a2.94,2.94,0,0,1-3-2.82l.08-2.28a.34.34,0,0,1,.31-.31H121.34a.34.34,0,0,1,.32.31v2.28h0a3.75,3.75,0,0,1-.87,2A2.81,2.81,0,0,1,118.68,66.94Zm-105-4.78-.08,2a2.4,2.4,0,0,0,2.35,2.27H118.6a2.41,2.41,0,0,0,1.72-.7,2.66,2.66,0,0,0,.71-1.57v-2Z"/><line class="cls-6" x1="105.26" y1="9.14" x2="105.26" y2="15.41"/><line class="cls-6" x1="102.52" y1="12.35" x2="108.09" y2="12.35"/><line class="cls-6" x1="34.83" y1="47.1" x2="34.83" y2="52.74"/><line class="cls-6" x1="32.25" y1="50" x2="37.34" y2="50"/><path class="cls-2" d="M64.09,60a1.48,1.48,0,0,1-.79-.31,2,2,0,0,1-.47-.87,1.1,1.1,0,0,1,.32-.94,1.92,1.92,0,0,1,.86-.47,1.06,1.06,0,0,1,.94.32,1.26,1.26,0,0,1,.16,1.8,1.87,1.87,0,0,1-.86.47Zm0-2.2h0a1.51,1.51,0,0,0-.71.32h0a.86.86,0,0,0,.08,1.25.88.88,0,0,0,.63.24,1.63,1.63,0,0,0,.63-.32A.88.88,0,0,0,64.56,58,.55.55,0,0,0,64.09,57.76Z"/><circle class="cls-2" cx="70.05" cy="58.47" r="1.1"/><rect class="cls-2" x="105.66" y="49.53" width="0.39" height="1.73"/><rect class="cls-2" x="105.66" y="52.74" width="0.39" height="1.73"/><rect class="cls-2" x="104.14" y="50.38" width="0.39" height="1.73" transform="translate(12.32 122.26) rotate(-63.82)"/><rect class="cls-2" x="107.06" y="51.9" width="0.39" height="1.73" transform="translate(12.59 125.73) rotate(-63.82)"/><rect class="cls-2" x="103.55" y="52.68" width="1.73" height="0.39" transform="translate(-11.62 68.18) rotate(-34.37)"/><rect class="cls-2" x="106.3" y="50.88" width="1.73" height="0.39" transform="translate(-10.12 69.42) rotate(-34.37)"/><rect class="cls-2" x="129.58" y="26.16" width="0.39" height="1.73"/><rect class="cls-2" x="129.58" y="29.37" width="0.39" height="1.73"/><rect class="cls-2" x="128.14" y="27.01" width="0.39" height="1.73" transform="translate(46.71 130.75) rotate(-63.82)"/><rect class="cls-2" x="131.11" y="28.41" width="0.39" height="1.73" transform="translate(47.11 134.2) rotate(-63.82)"/><rect class="cls-2" x="127.57" y="29.31" width="1.73" height="0.39" transform="matrix(0.83, -0.56, 0.56, 0.83, 5.77, 77.66)"/><rect class="cls-2" x="130.28" y="27.43" width="1.73" height="0.39" transform="translate(7.3 78.87) rotate(-34.37)"/><path class="cls-2" d="M28.17,33.29s1.65,27.06,10.51,27.06H28.17Z"/><circle class="cls-6" cx="120.17" cy="16.67" r="0.86"/><circle class="cls-2" cx="14.84" cy="12.35" r="1.49"/><circle class="cls-2" cx="30.44" cy="9.37" r="1.1"/><circle class="cls-2" cx="20.01" cy="27.02" r="0.86"/><circle class="cls-6" cx="127.07" cy="49.53" r="0.78"/><path class="cls-2" d="M125,34.86s.94,3.53,3.61,3.53c0,0-3.22.16-3.22,3.14,0,0-.86-3.37-3.37-3.37A3.78,3.78,0,0,0,125,34.86Z"/><path class="cls-2" d="M81.37,54.85c-1.06-1-.6-2.11.48-3.24s2.09-1.26,3.15-.25c.58.56.33,1.8-.78,2.85C83.3,55.08,81.85,55.3,81.37,54.85Z"/><path class="cls-2" d="M57.08,55.09c1.06-1,.6-2.11-.48-3.23s-2.09-1.26-3.15-.25c-.58.55-.33,1.8.78,2.85C55.15,55.32,56.6,55.55,57.08,55.09Z"/><polyline class="cls-7" points="45.13 27.11 68.95 35.21 89.56 25.38"/><polyline class="cls-7" points="44.85 23.46 68.67 31.56 89.28 21.73"/><polyline class="cls-7" points="45.13 34.35 68.95 42.45 89.56 32.61"/><polyline class="cls-7" points="45.13 30.59 68.95 38.69 89.56 28.85"/><path class="cls-8" d="M87.84,11.58C87.57,15,86.73,19,84.35,20.65,79.84,23.88,69,27.81,69,27.81L46.18,20.65l10.13-4.57,1.08-.49c2.12-.95,7.08-4.12,7.5-12.59,0-.79,0-1.62,0-2.5l1,.23,22,5.3A37.41,37.41,0,0,1,87.84,11.58Z"/><path class="cls-9" d="M87.47,12.15c-3.32,9.67-16.67,8.48-16.67,8.48L57,16.3s8-2.6,8.4-15.19L87.33,6.45A29.16,29.16,0,0,1,87.47,12.15Z"/></g></g></svg>